<svg width="263" height="213" viewBox="0 0 263 213" fill="none" xmlns="http://www.w3.org/2000/svg">
<g clip-path="url(#clip0_160_129)">
<path d="M170.482 56.1481H192C190.171 25.9779 165.999 1.86324 135.838 0V20.209C154.379 22.3947 168.976 37.4082 170.482 56.1481Z" fill="#F9F9F9"/>
<path d="M135.838 98.5012V119.785C165.892 117.922 189.956 93.9864 192 63.9954H170.339C168.223 82.0545 153.913 96.3871 135.838 98.5012Z" fill="#F9F9F9"/>
<path d="M127.947 20.0657V0C97.9293 2.0424 73.9723 26.1212 72.1074 56.1481H91.8325C93.4105 36.9424 108.724 21.6423 127.947 20.0657Z" fill="#F9F9F9"/>
<path d="M91.725 106.814V64.031H90.5057H87.78H72V119.928H72.0717C72.0717 119.964 72.0717 120 72.0717 120C90.685 120 109.334 120 127.947 120C127.947 113.371 127.876 89.5073 127.876 82.8784C117.655 105.918 99.9737 109.501 91.725 106.814Z" fill="#F9F9F9"/>
<path d="M132.449 73.8737C139.877 73.8737 145.898 67.8578 145.898 60.4368C145.898 53.0159 139.877 47 132.449 47C125.021 47 119 53.0159 119 60.4368C119 67.8578 125.021 73.8737 132.449 73.8737Z" fill="#18D6BF"/>
</g>
<path d="M9.858 188L16.926 154.52H4.65L6.014 148.072H38.874L37.51 154.52H25.296L18.228 188H9.858ZM29.7905 188L35.9905 158.612H43.7405L43.4925 161.65C45.0218 160.823 46.8198 160.079 48.8865 159.418C50.9945 158.715 53.0198 158.24 54.9625 157.992L53.6605 164.316C52.5032 164.481 51.2218 164.729 49.8165 165.06C48.4525 165.391 47.1092 165.763 45.7865 166.176C44.5052 166.589 43.4098 167.023 42.5005 167.478L38.1605 188H29.7905ZM63.859 188.62C61.3377 188.62 59.147 188.165 57.287 187.256C55.4684 186.347 54.1664 184.879 53.381 182.854C52.637 180.787 52.6164 178.08 53.319 174.732C54.063 171.219 55.303 168.222 57.039 165.742C58.775 163.262 60.8624 161.361 63.301 160.038C65.7397 158.674 68.3437 157.992 71.113 157.992C72.7664 157.992 74.1924 158.178 75.391 158.55C76.5897 158.922 77.7057 159.583 78.739 160.534L79.111 158.612H87.481L81.281 188H74.089L74.151 185.272C72.6217 186.388 71.0304 187.235 69.377 187.814C67.765 188.351 65.9257 188.62 63.859 188.62ZM67.455 182.482C70.059 182.482 72.4564 181.593 74.647 179.816L77.375 166.734C76.0937 164.998 74.2957 164.13 71.981 164.13C66.7317 164.13 63.3424 167.664 61.813 174.732C61.1517 177.749 61.255 179.795 62.123 180.87C63.0324 181.945 64.8097 182.482 67.455 182.482ZM103.156 188.62C100.015 188.62 97.3279 188.041 95.0959 186.884C92.9052 185.727 91.3552 184.011 90.4459 181.738C89.5779 179.465 89.4952 176.654 90.1979 173.306C91.2726 168.139 93.4839 164.295 96.8319 161.774C100.18 159.253 104.541 157.992 109.914 157.992C111.981 157.992 113.717 158.137 115.122 158.426C116.569 158.715 117.933 159.191 119.214 159.852L117.912 165.866C117.003 165.37 115.887 164.977 114.564 164.688C113.283 164.399 111.857 164.254 110.286 164.254C107.145 164.254 104.603 164.915 102.66 166.238C100.717 167.519 99.3946 169.875 98.6919 173.306C98.0306 176.447 98.1959 178.741 99.1879 180.188C100.221 181.635 102.619 182.358 106.38 182.358C107.827 182.358 109.273 182.213 110.72 181.924C112.167 181.635 113.551 181.201 114.874 180.622L113.572 186.822C110.513 188.021 107.041 188.62 103.156 188.62ZM118.611 188L127.477 146.212H135.847L130.949 169.214L144.155 158.612H153.703L139.319 170.64L148.185 188H139.319L133.119 175.042L129.027 178.328L126.981 188H118.611ZM202.814 188.62C200.293 188.62 198.102 188.165 196.242 187.256C194.423 186.347 193.121 184.879 192.336 182.854C191.592 180.787 191.571 178.08 192.274 174.732C193.018 171.219 194.258 168.222 195.994 165.742C197.73 163.262 199.817 161.361 202.256 160.038C204.695 158.674 207.299 157.992 210.068 157.992C211.721 157.992 213.147 158.178 214.346 158.55C215.545 158.922 216.661 159.583 217.694 160.534L218.066 158.612H226.436L220.236 188H213.044L213.106 185.272C211.577 186.388 209.985 187.235 208.332 187.814C206.72 188.351 204.881 188.62 202.814 188.62ZM206.41 182.482C209.014 182.482 211.411 181.593 213.602 179.816L216.33 166.734C215.049 164.998 213.251 164.13 210.936 164.13C205.687 164.13 202.297 167.664 200.768 174.732C200.107 177.749 200.21 179.795 201.078 180.87C201.987 181.945 203.765 182.482 206.41 182.482ZM227.293 188L236.159 146.212H244.529L239.631 169.214L252.837 158.612H262.385L248.001 170.64L256.867 188H248.001L241.801 175.042L237.709 178.328L235.663 188H227.293Z" fill="white"/>
<path d="M153.669 188L162.101 148.072H180.329C183.388 148.072 185.827 148.713 187.645 149.994C189.505 151.234 190.766 152.908 191.427 155.016C192.089 157.083 192.151 159.356 191.613 161.836C190.745 165.887 188.968 169.173 186.281 171.694C183.636 174.215 179.916 175.476 175.121 175.476H164.643L162.039 188H153.669ZM166.069 168.842H174.439C177.085 168.842 179.089 168.222 180.453 166.982C181.859 165.701 182.768 163.985 183.181 161.836C183.677 159.521 183.574 157.765 182.871 156.566C182.21 155.326 180.515 154.706 177.787 154.706H169.107L166.069 168.842Z" fill="#18D6BF"/>
<defs>
<clipPath id="clip0_160_129">
<rect width="120" height="120" fill="white" transform="translate(72)"/>
</clipPath>
</defs>
</svg>
